<svg width="55" height="18" viewBox="0 0 55 18" fill="none" xmlns="http://www.w3.org/2000/svg">
<rect width="25" height="17" rx="2" fill="#F9A910"/>
<path d="M6.34916 13.084C5.37316 13.084 4.58516 12.884 3.98516 12.484C3.39316 12.076 3.09716 11.484 3.09716 10.708C3.09716 10.644 3.10516 10.532 3.12116 10.372H5.60516C5.58116 10.644 5.63716 10.856 5.77316 11.008C5.90916 11.16 6.11716 11.236 6.39716 11.236C6.62916 11.236 6.81316 11.184 6.94916 11.08C7.09316 10.976 7.16516 10.828 7.16516 10.636C7.16516 10.412 7.06116 10.228 6.85316 10.084C6.65316 9.94 6.32516 9.772 5.86916 9.58C5.41316 9.388 5.03716 9.208 4.74116 9.04C4.44516 8.864 4.18916 8.628 3.97316 8.332C3.75716 8.028 3.64916 7.652 3.64916 7.204C3.64916 6.62 3.79316 6.12 4.08116 5.704C4.36916 5.28 4.76916 4.96 5.28116 4.744C5.80116 4.52 6.39316 4.408 7.05716 4.408C7.65716 4.408 8.18916 4.504 8.65316 4.696C9.11716 4.88 9.47716 5.148 9.73316 5.5C9.99716 5.852 10.1292 6.268 10.1292 6.748C10.1292 6.876 10.1252 6.972 10.1172 7.036H7.58516C7.59316 6.996 7.59716 6.94 7.59716 6.868C7.59716 6.676 7.53716 6.528 7.41716 6.424C7.29716 6.312 7.13316 6.256 6.92516 6.256C6.70916 6.256 6.53316 6.312 6.39716 6.424C6.26916 6.528 6.20516 6.676 6.20516 6.868C6.20516 7.076 6.30516 7.256 6.50516 7.408C6.71316 7.552 7.03316 7.724 7.46516 7.924C7.92916 8.14 8.30916 8.344 8.60516 8.536C8.90916 8.72 9.16916 8.968 9.38516 9.28C9.60116 9.592 9.70916 9.976 9.70916 10.432C9.70916 10.936 9.57316 11.392 9.30116 11.8C9.02916 12.2 8.64116 12.516 8.13716 12.748C7.63316 12.972 7.03716 13.084 6.34916 13.084ZM13.8112 7.204C14.0512 6.892 14.3552 6.644 14.7232 6.46C15.0912 6.276 15.5032 6.184 15.9592 6.184C16.6632 6.184 17.2272 6.416 17.6512 6.88C18.0832 7.344 18.2992 7.98 18.2992 8.788C18.2992 9.044 18.2752 9.324 18.2272 9.628C18.0992 10.324 17.8632 10.936 17.5192 11.464C17.1752 11.984 16.7592 12.384 16.2712 12.664C15.7912 12.944 15.2832 13.084 14.7472 13.084C14.2912 13.084 13.9112 12.992 13.6072 12.808C13.3112 12.624 13.0952 12.376 12.9592 12.064L12.2272 16.216H9.87519L11.6272 6.268H13.9792L13.8112 7.204ZM15.8272 9.628C15.8512 9.508 15.8632 9.392 15.8632 9.28C15.8632 8.952 15.7672 8.696 15.5752 8.512C15.3912 8.328 15.1512 8.236 14.8552 8.236C14.5112 8.236 14.1952 8.36 13.9072 8.608C13.6272 8.856 13.4512 9.196 13.3792 9.628C13.3552 9.748 13.3432 9.86 13.3432 9.964C13.3432 10.3 13.4352 10.564 13.6192 10.756C13.8112 10.94 14.0552 11.032 14.3512 11.032C14.7032 11.032 15.0192 10.908 15.2992 10.66C15.5792 10.404 15.7552 10.06 15.8272 9.628ZM21.0794 5.644C20.7114 5.644 20.4194 5.552 20.2034 5.368C19.9954 5.184 19.8914 4.948 19.8914 4.66C19.8914 4.404 19.9594 4.168 20.0954 3.952C20.2394 3.728 20.4314 3.552 20.6714 3.424C20.9194 3.288 21.1954 3.22 21.4994 3.22C21.8674 3.22 22.1554 3.316 22.3634 3.508C22.5794 3.692 22.6874 3.932 22.6874 4.228C22.6874 4.484 22.6154 4.72 22.4714 4.936C22.3354 5.152 22.1434 5.324 21.8954 5.452C21.6474 5.58 21.3754 5.644 21.0794 5.644ZM22.1354 6.268L20.9474 13H18.5834L19.7834 6.268H22.1354Z" fill="white"/>
<path d="M35.148 10.268L33.948 17H31.596L31.764 16.04C31.5 16.344 31.176 16.592 30.792 16.784C30.416 16.968 30 17.06 29.544 17.06C28.88 17.06 28.364 16.872 27.996 16.496C27.628 16.12 27.444 15.596 27.444 14.924C27.444 14.692 27.468 14.444 27.516 14.18L28.2 10.268H30.552L29.916 13.88C29.892 13.984 29.88 14.088 29.88 14.192C29.88 14.48 29.964 14.708 30.132 14.876C30.3 15.036 30.528 15.116 30.816 15.116C31.152 15.116 31.436 15.012 31.668 14.804C31.9 14.596 32.056 14.308 32.136 13.94L32.784 10.268H35.148ZM38.4666 14.48C38.4586 14.52 38.4546 14.568 38.4546 14.624C38.4546 14.752 38.4906 14.848 38.5626 14.912C38.6426 14.968 38.7706 14.996 38.9466 14.996H39.6306L39.2706 17H38.2386C36.7746 17 36.0426 16.384 36.0426 15.152C36.0426 14.944 36.0666 14.708 36.1146 14.444L36.5106 12.224H35.6826L36.0306 10.268H36.8586L37.1466 8.636H39.5106L39.2226 10.268H40.4346L40.0866 12.224H38.8746L38.4666 14.48ZM42.8333 9.644C42.4653 9.644 42.1733 9.552 41.9573 9.368C41.7493 9.184 41.6453 8.948 41.6453 8.66C41.6453 8.404 41.7133 8.168 41.8493 7.952C41.9933 7.728 42.1853 7.552 42.4253 7.424C42.6733 7.288 42.9493 7.22 43.2533 7.22C43.6213 7.22 43.9093 7.316 44.1173 7.508C44.3333 7.692 44.4413 7.932 44.4413 8.228C44.4413 8.484 44.3693 8.72 44.2253 8.936C44.0893 9.152 43.8973 9.324 43.6493 9.452C43.4013 9.58 43.1293 9.644 42.8333 9.644ZM43.8893 10.268L42.7013 17H40.3373L41.5373 10.268H43.8893ZM47.9648 8.12L46.3928 17H44.0288L45.6008 8.12H47.9648ZM50.6602 17.084C50.1002 17.084 49.6002 17 49.1602 16.832C48.7202 16.664 48.3762 16.428 48.1282 16.124C47.8802 15.812 47.7562 15.456 47.7562 15.056C47.7562 14.984 47.7642 14.876 47.7802 14.732H50.0482C50.0402 14.956 50.1082 15.128 50.2522 15.248C50.3962 15.368 50.5962 15.428 50.8522 15.428C51.0522 15.428 51.2162 15.388 51.3442 15.308C51.4802 15.228 51.5482 15.124 51.5482 14.996C51.5482 14.844 51.4642 14.728 51.2962 14.648C51.1282 14.56 50.8482 14.452 50.4562 14.324C50.0002 14.18 49.6242 14.04 49.3282 13.904C49.0322 13.768 48.7722 13.568 48.5482 13.304C48.3322 13.04 48.2242 12.7 48.2242 12.284C48.2242 11.884 48.3402 11.524 48.5722 11.204C48.8122 10.884 49.1482 10.636 49.5802 10.46C50.0122 10.276 50.5122 10.184 51.0802 10.184C51.6882 10.184 52.2122 10.288 52.6522 10.496C53.1002 10.696 53.4322 10.976 53.6482 11.336C53.8722 11.696 53.9722 12.096 53.9482 12.536H51.8362C51.8442 12.32 51.7802 12.152 51.6442 12.032C51.5082 11.904 51.3122 11.84 51.0562 11.84C50.8722 11.84 50.7202 11.88 50.6002 11.96C50.4802 12.04 50.4202 12.144 50.4202 12.272C50.4202 12.424 50.5042 12.544 50.6722 12.632C50.8482 12.72 51.1402 12.832 51.5482 12.968C51.9962 13.112 52.3682 13.256 52.6642 13.4C52.9682 13.536 53.2282 13.732 53.4442 13.988C53.6602 14.236 53.7682 14.556 53.7682 14.948C53.7682 15.612 53.4802 16.136 52.9042 16.52C52.3282 16.896 51.5802 17.084 50.6602 17.084Z" fill="#F9A910"/>
<path d="M29.752 1.52C30.0933 1.52 30.384 1.58933 30.624 1.728C30.8693 1.86133 31.0453 2.02933 31.152 2.232L31.264 1.592H32.184L31.4 6.072C31.3253 6.47733 31.176 6.83733 30.952 7.152C30.728 7.472 30.4373 7.72267 30.08 7.904C29.7227 8.08533 29.32 8.176 28.872 8.176C28.4827 8.176 28.1413 8.112 27.848 7.984C27.5547 7.86133 27.3333 7.68267 27.184 7.448C27.0347 7.21333 26.9707 6.936 26.992 6.616H27.896C27.9227 6.84533 28.0373 7.02933 28.24 7.168C28.4427 7.312 28.7013 7.384 29.016 7.384C29.384 7.384 29.7013 7.272 29.968 7.048C30.2347 6.824 30.4053 6.49867 30.48 6.072L30.608 5.336C30.416 5.544 30.176 5.72 29.888 5.864C29.6 6.00267 29.288 6.072 28.952 6.072C28.616 6.072 28.3173 5.99733 28.056 5.848C27.7947 5.69867 27.5893 5.488 27.44 5.216C27.296 4.93867 27.224 4.62133 27.224 4.264C27.224 4.104 27.24 3.94133 27.272 3.776C27.352 3.33333 27.512 2.94133 27.752 2.6C27.9973 2.25867 28.296 1.99467 28.648 1.808C29 1.616 29.368 1.52 29.752 1.52ZM30.88 3.792C30.9013 3.69067 30.912 3.58133 30.912 3.464C30.912 3.10667 30.8053 2.82667 30.592 2.624C30.384 2.416 30.1227 2.312 29.808 2.312C29.5733 2.312 29.344 2.37067 29.12 2.488C28.896 2.6 28.7013 2.768 28.536 2.992C28.3707 3.21067 28.2613 3.472 28.208 3.776C28.1867 3.87733 28.176 3.98667 28.176 4.104C28.176 4.46667 28.28 4.75467 28.488 4.968C28.7013 5.176 28.9653 5.28 29.28 5.28C29.5147 5.28 29.744 5.22133 29.968 5.104C30.192 4.98667 30.3867 4.816 30.552 4.592C30.7173 4.36267 30.8267 4.096 30.88 3.792ZM34.5339 6.072C34.1605 6.072 33.8325 5.99467 33.5499 5.84C33.2672 5.68533 33.0459 5.46667 32.8859 5.184C32.7312 4.90133 32.6539 4.57867 32.6539 4.216C32.6539 3.72 32.7685 3.26667 32.9979 2.856C33.2325 2.44533 33.5525 2.12 33.9579 1.88C34.3685 1.64 34.8245 1.52 35.3259 1.52C35.6992 1.52 36.0299 1.6 36.3179 1.76C36.6059 1.91467 36.8299 2.13333 36.9899 2.416C37.1552 2.69333 37.2379 3.016 37.2379 3.384C37.2379 3.88 37.1179 4.33333 36.8779 4.744C36.6379 5.15467 36.3125 5.48 35.9019 5.72C35.4912 5.95467 35.0352 6.072 34.5339 6.072ZM34.6459 5.304C34.9499 5.304 35.2272 5.21867 35.4779 5.048C35.7339 4.872 35.9339 4.64267 36.0779 4.36C36.2219 4.072 36.2939 3.76533 36.2939 3.44C36.2939 3.072 36.1899 2.78933 35.9819 2.592C35.7739 2.38933 35.5125 2.288 35.1979 2.288C34.8885 2.288 34.6112 2.376 34.3659 2.552C34.1259 2.72267 33.9365 2.95467 33.7979 3.248C33.6645 3.536 33.5979 3.84533 33.5979 4.176C33.5979 4.53333 33.6939 4.81067 33.8859 5.008C34.0832 5.20533 34.3365 5.304 34.6459 5.304ZM38.9874 4.776C38.9768 4.85067 38.9714 4.89867 38.9714 4.92C38.9714 5.032 39.0061 5.11467 39.0754 5.168C39.1448 5.216 39.2594 5.24 39.4194 5.24H39.9794L39.8434 6H39.1234C38.7714 6 38.5021 5.93067 38.3154 5.792C38.1288 5.648 38.0354 5.42133 38.0354 5.112C38.0354 4.99467 38.0461 4.88267 38.0674 4.776L38.4994 2.336H37.9794L38.1074 1.592H38.6354L38.8274 0.496H39.7474L39.5554 1.592H40.6194L40.4914 2.336H39.4194L38.9874 4.776Z" fill="black"/>
</svg>
